{
  "asset": {
    "generator": "Khronos glTF Blender I/O v4.5.47",
    "version": "2.0"
  },
  "extensionsUsed": ["KHR_materials_emissive_strength"],
  "scene": 0,
  "scenes": [
    {
      "name": "Scene",
      "nodes": [13]
    }
  ],
  "nodes": [
    {
      "mesh": 0,
      "name": "B\u00e9zierCurve",
      "rotation": [0, 0, -0.7071068286895752, 0.7071068286895752],
      "scale": [0.12753984332084656, 0.11502593010663986, 0.12661735713481903],
      "translation": [
        0.1602785736322403, -0.08186060190200806, -0.8794747591018677
      ]
    },
    {
      "mesh": 1,
      "name": "Cube",
      "scale": [0.4778069257736206, 0.5297885537147522, 0.5259566307067871],
      "translation": [
        0.022878557443618774, -0.9274356961250305, 0.1403113454580307
      ]
    },
    {
      "mesh": 2,
      "name": "Cube.001",
      "scale": [0.4778069257736206, 0.5297885537147522, 0.5259566307067871],
      "translation": [
        0.022878557443618774, -0.9274356961250305, 0.1403113454580307
      ]
    },
    {
      "mesh": 3,
      "name": "Cube.002",
      "scale": [0.4778069257736206, 0.5297885537147522, 0.5259566307067871],
      "translation": [
        0.7039272785186768, -0.6131058931350708, -0.6294465661048889
      ]
    },
    {
      "mesh": 4,
      "name": "Cube.003",
      "scale": [0.4778069257736206, 0.5297885537147522, 0.5259566307067871],
      "translation": [
        0.7039272785186768, -0.6131058931350708, -0.6294465661048889
      ]
    },
    {
      "mesh": 5,
      "name": "Cube.004",
      "scale": [0.4778069257736206, 0.5297885537147522, 0.5259566307067871],
      "translation": [
        0.7039272785186768, -0.6131058931350708, -0.6294465661048889
      ]
    },
    {
      "mesh": 6,
      "name": "Cube.005",
      "scale": [0.4778069257736206, 0.5297885537147522, 0.5259566307067871],
      "translation": [
        -0.685075044631958, -0.2031072974205017, 0.024503283202648163
      ]
    },
    {
      "mesh": 7,
      "name": "Cube.006",
      "scale": [0.4778069257736206, 0.5297885537147522, 0.5259566307067871],
      "translation": [
        0.7039272785186768, -0.6131058931350708, -0.6294465661048889
      ]
    },
    {
      "mesh": 8,
      "name": "Cube.007",
      "scale": [0.4778069257736206, 0.5297885537147522, 0.5259566307067871],
      "translation": [
        0.7039272785186768, -0.6131058931350708, -0.6294465661048889
      ]
    },
    {
      "mesh": 9,
      "name": "Cube.008",
      "scale": [0.4778069257736206, 0.5297885537147522, 0.5259566307067871],
      "translation": [
        0.7039272785186768, -0.6131058931350708, -0.6294465661048889
      ]
    },
    {
      "mesh": 10,
      "name": "Cube.009",
      "scale": [0.4778069257736206, 0.5297885537147522, 0.5259566307067871],
      "translation": [
        -0.6148726940155029, -0.6131058931350708, -0.16415844857692719
      ]
    },
    {
      "mesh": 11,
      "name": "Cube.010",
      "scale": [0.24326424300670624, 0.26972946524620056, 0.26777854561805725],
      "translation": [
        0.7039272785186768, -0.6131058931350708, -0.6294465661048889
      ]
    },
    {
      "mesh": 12,
      "name": "Cylinder",
      "scale": [
        0.015818489715456963, 0.017539415508508682, 0.01741255447268486
      ],
      "translation": [
        0.1602785885334015, -0.19577139616012573, -0.8794748783111572
      ]
    },
    {
      "children": [0, 1, 2, 3, 4, 5, 6, 7, 8, 9, 10, 11, 12],
      "name": "Low Poly Kitchen",
      "scale": [2.092895746231079, 1.8875453472137451, 1.9012973308563232],
      "translation": [
        -0.04788243770599365, 1.801883339881897, -0.2667735815048218
      ]
    }
  ],
  "materials": [
    {
      "doubleSided": true,
      "name": "Material.052",
      "pbrMetallicRoughness": {
        "baseColorFactor": [
          0.800000011920929, 0.800000011920929, 0.800000011920929, 1
        ],
        "roughnessFactor": 0.11818182468414307
      }
    },
    {
      "doubleSided": true,
      "name": "White Plaster.001",
      "pbrMetallicRoughness": {
        "metallicFactor": 0
      }
    },
    {
      "doubleSided": true,
      "name": "Wood 1",
      "pbrMetallicRoughness": {
        "metallicFactor": 0,
        "roughnessFactor": 0.6909090876579285
      }
    },
    {
      "doubleSided": true,
      "name": "Material.057",
      "pbrMetallicRoughness": {
        "baseColorFactor": [
          0.800000011920929, 0.800000011920929, 0.800000011920929, 1
        ],
        "metallicFactor": 0,
        "roughnessFactor": 0.09090909361839294
      }
    },
    {
      "doubleSided": true,
      "name": "Wood 8",
      "pbrMetallicRoughness": {
        "metallicFactor": 0,
        "roughnessFactor": 0.6909090876579285
      }
    },
    {
      "doubleSided": true,
      "name": "Material.053",
      "pbrMetallicRoughness": {
        "baseColorFactor": [
          0.4026539921760559, 0.4026539921760559, 0.4026539921760559, 1
        ],
        "roughnessFactor": 0.22727271914482117
      }
    },
    {
      "doubleSided": true,
      "name": "Material.054",
      "pbrMetallicRoughness": {
        "baseColorFactor": [0, 0, 0, 1],
        "metallicFactor": 0,
        "roughnessFactor": 0.09999999403953552
      }
    },
    {
      "doubleSided": true,
      "name": "Material.056",
      "pbrMetallicRoughness": {
        "baseColorFactor": [
          0.4933112859725952, 0.4933112859725952, 0.4933112859725952, 1
        ],
        "metallicFactor": 0,
        "roughnessFactor": 0.12727272510528564
      }
    },
    {
      "doubleSided": true,
      "emissiveFactor": [1, 1, 1],
      "extensions": {
        "KHR_materials_emissive_strength": {
          "emissiveStrength": 35
        }
      },
      "name": "Material.055",
      "pbrMetallicRoughness": {
        "baseColorFactor": [0, 0, 0, 1]
      }
    }
  ],
  "meshes": [
    {
      "name": "B\u00e9zierCurve",
      "primitives": [
        {
          "attributes": {
            "POSITION": 0,
            "NORMAL": 1,
            "TEXCOORD_0": 2
          },
          "indices": 3,
          "material": 0
        }
      ]
    },
    {
      "name": "Cube.011",
      "primitives": [
        {
          "attributes": {
            "POSITION": 4,
            "NORMAL": 5,
            "TEXCOORD_0": 6
          },
          "indices": 7,
          "material": 1
        }
      ]
    },
    {
      "name": "Cube.001",
      "primitives": [
        {
          "attributes": {
            "POSITION": 8,
            "NORMAL": 9,
            "TEXCOORD_0": 10
          },
          "indices": 11,
          "material": 2
        }
      ]
    },
    {
      "name": "Cube.002",
      "primitives": [
        {
          "attributes": {
            "POSITION": 12,
            "NORMAL": 13,
            "TEXCOORD_0": 14
          },
          "indices": 15,
          "material": 3
        }
      ]
    },
    {
      "name": "Cube.003",
      "primitives": [
        {
          "attributes": {
            "POSITION": 16,
            "NORMAL": 17,
            "TEXCOORD_0": 18
          },
          "indices": 19,
          "material": 4
        }
      ]
    },
    {
      "name": "Cube.004",
      "primitives": [
        {
          "attributes": {
            "POSITION": 20,
            "NORMAL": 21,
            "TEXCOORD_0": 22
          },
          "indices": 23,
          "material": 5
        }
      ]
    },
    {
      "name": "Cube.005",
      "primitives": [
        {
          "attributes": {
            "POSITION": 24,
            "NORMAL": 25,
            "TEXCOORD_0": 26
          },
          "indices": 27,
          "material": 6
        }
      ]
    },
    {
      "name": "Cube.006",
      "primitives": [
        {
          "attributes": {
            "POSITION": 28,
            "NORMAL": 29,
            "TEXCOORD_0": 30
          },
          "indices": 31,
          "material": 3
        }
      ]
    },
    {
      "name": "Cube.007",
      "primitives": [
        {
          "attributes": {
            "POSITION": 32,
            "NORMAL": 33,
            "TEXCOORD_0": 34
          },
          "indices": 35,
          "material": 7
        }
      ]
    },
    {
      "name": "Cube.008",
      "primitives": [
        {
          "attributes": {
            "POSITION": 36,
            "NORMAL": 37,
            "TEXCOORD_0": 38
          },
          "indices": 39,
          "material": 7
        }
      ]
    },
    {
      "name": "Cube.009",
      "primitives": [
        {
          "attributes": {
            "POSITION": 40,
            "NORMAL": 41,
            "TEXCOORD_0": 42
          },
          "indices": 43,
          "material": 7
        }
      ]
    },
    {
      "name": "Cube.010",
      "primitives": [
        {
          "attributes": {
            "POSITION": 44,
            "NORMAL": 45,
            "TEXCOORD_0": 46
          },
          "indices": 47,
          "material": 8
        }
      ]
    },
    {
      "name": "Cylinder",
      "primitives": [
        {
          "attributes": {
            "POSITION": 48,
            "NORMAL": 49,
            "TEXCOORD_0": 50
          },
          "indices": 51,
          "material": 0
        }
      ]
    }
  ],
  "accessors": [
    {
      "bufferView": 0,
      "componentType": 5126,
      "count": 325,
      "max": [1, 0.11100003123283386, 1.2683401107788086],
      "min": [-1.192070484161377, -0.11100009828805923, -0.11101166158914566],
      "type": "VEC3"
    },
    {
      "bufferView": 1,
      "componentType": 5126,
      "count": 325,
      "type": "VEC3"
    },
    {
      "bufferView": 2,
      "componentType": 5126,
      "count": 325,
      "type": "VEC2"
    },
    {
      "bufferView": 3,
      "componentType": 5123,
      "count": 1728,
      "type": "SCALAR"
    },
    {
      "bufferView": 4,
      "componentType": 5126,
      "count": 494,
      "max": [1.9802680015563965, 3.502628803253174, 1.5239731073379517],
      "min": [-2.073389768600464, -0.04698898643255234, -2.073389768600464],
      "type": "VEC3"
    },
    {
      "bufferView": 5,
      "componentType": 5126,
      "count": 494,
      "type": "VEC3"
    },
    {
      "bufferView": 6,
      "componentType": 5126,
      "count": 494,
      "type": "VEC2"
    },
    {
      "bufferView": 7,
      "componentType": 5123,
      "count": 1122,
      "type": "SCALAR"
    },
    {
      "bufferView": 8,
      "componentType": 5126,
      "count": 3209,
      "max": [1.9802680015563965, 0.08408316969871521, 1.5239731073379517],
      "min": [-1.9802680015563965, 0.04698898643255234, -1.9802680015563965],
      "type": "VEC3"
    },
    {
      "bufferView": 9,
      "componentType": 5126,
      "count": 3209,
      "type": "VEC3"
    },
    {
      "bufferView": 10,
      "componentType": 5126,
      "count": 3209,
      "type": "VEC2"
    },
    {
      "bufferView": 11,
      "componentType": 5123,
      "count": 6768,
      "type": "SCALAR"
    },
    {
      "bufferView": 12,
      "componentType": 5126,
      "count": 877,
      "max": [0.5091266632080078, 0.703781247138977, 2.9382007122039795],
      "min": [-3.4029488563537598, -0.5091266632080078, -0.5091266632080078],
      "type": "VEC3"
    },
    {
      "bufferView": 13,
      "componentType": 5126,
      "count": 877,
      "type": "VEC3"
    },
    {
      "bufferView": 14,
      "componentType": 5126,
      "count": 877,
      "type": "VEC2"
    },
    {
      "bufferView": 15,
      "componentType": 5123,
      "count": 1956,
      "type": "SCALAR"
    },
    {
      "bufferView": 16,
      "componentType": 5126,
      "count": 996,
      "max": [0.5091266632080078, 0.761177659034729, 2.9382007122039795],
      "min": [-3.4029488563537598, 0.703781247138977, -0.5091266632080078],
      "type": "VEC3"
    },
    {
      "bufferView": 17,
      "componentType": 5126,
      "count": 996,
      "type": "VEC3"
    },
    {
      "bufferView": 18,
      "componentType": 5126,
      "count": 996,
      "type": "VEC2"
    },
    {
      "bufferView": 19,
      "componentType": 5123,
      "count": 2328,
      "type": "SCALAR"
    },
    {
      "bufferView": 20,
      "componentType": 5126,
      "count": 96,
      "max": [-0.5626561641693115, 0.761177659034729, 0.27751436829566956],
      "min": [-1.7697125673294067, 0.5288487672805786, -0.4363253712654114],
      "type": "VEC3"
    },
    {
      "bufferView": 21,
      "componentType": 5126,
      "count": 96,
      "type": "VEC3"
    },
    {
      "bufferView": 22,
      "componentType": 5126,
      "count": 96,
      "type": "VEC2"
    },
    {
      "bufferView": 23,
      "componentType": 5123,
      "count": 222,
      "type": "SCALAR"
    },
    {
      "bufferView": 24,
      "componentType": 5126,
      "count": 265,
      "max": [0.3849508464336395, 0.012778660282492638, 0.5992728471755981],
      "min": [-0.3849508464336395, -0.012778660282492638, -0.5992728471755981],
      "type": "VEC3"
    },
    {
      "bufferView": 25,
      "componentType": 5126,
      "count": 265,
      "type": "VEC3"
    },
    {
      "bufferView": 26,
      "componentType": 5126,
      "count": 265,
      "type": "VEC2"
    },
    {
      "bufferView": 27,
      "componentType": 5123,
      "count": 564,
      "type": "SCALAR"
    },
    {
      "bufferView": 28,
      "componentType": 5126,
      "count": 1726,
      "max": [0.5091266632080078, 2.891390562057495, 2.9382007122039795],
      "min": [-3.4029488563537598, 1.6149096488952637, -0.5091266632080078],
      "type": "VEC3"
    },
    {
      "bufferView": 29,
      "componentType": 5126,
      "count": 1726,
      "type": "VEC3"
    },
    {
      "bufferView": 30,
      "componentType": 5126,
      "count": 1726,
      "type": "VEC2"
    },
    {
      "bufferView": 31,
      "componentType": 5123,
      "count": 4380,
      "type": "SCALAR"
    },
    {
      "bufferView": 32,
      "componentType": 5126,
      "count": 1371,
      "max": [0.5091266632080078, 2.891390562057495, 2.9382007122039795],
      "min": [-2.4111249446868896, 1.6149096488952637, 0.350315660238266],
      "type": "VEC3"
    },
    {
      "bufferView": 33,
      "componentType": 5126,
      "count": 1371,
      "type": "VEC3"
    },
    {
      "bufferView": 34,
      "componentType": 5126,
      "count": 1371,
      "type": "VEC2"
    },
    {
      "bufferView": 35,
      "componentType": 5123,
      "count": 3108,
      "type": "SCALAR"
    },
    {
      "bufferView": 36,
      "componentType": 5126,
      "count": 897,
      "max": [0.5091266632080078, 0.703781247138977, 0.37351590394973755],
      "min": [-2.411430597305298, -0.5091266632080078, 0.350315660238266],
      "type": "VEC3"
    },
    {
      "bufferView": 37,
      "componentType": 5126,
      "count": 897,
      "type": "VEC3"
    },
    {
      "bufferView": 38,
      "componentType": 5126,
      "count": 897,
      "type": "VEC2"
    },
    {
      "bufferView": 39,
      "componentType": 5123,
      "count": 1692,
      "type": "SCALAR"
    },
    {
      "bufferView": 40,
      "componentType": 5126,
      "count": 1505,
      "max": [0.3735159933567047, 0.703781247138977, 2.0554347038269043],
      "min": [0.3503156304359436, -0.5091266632080078, -0.5091266632080078],
      "type": "VEC3"
    },
    {
      "bufferView": 41,
      "componentType": 5126,
      "count": 1505,
      "type": "VEC3"
    },
    {
      "bufferView": 42,
      "componentType": 5126,
      "count": 1505,
      "type": "VEC2"
    },
    {
      "bufferView": 43,
      "componentType": 5123,
      "count": 2820,
      "type": "SCALAR"
    },
    {
      "bufferView": 44,
      "componentType": 5126,
      "count": 124,
      "max": [0.9511574506759644, 3.3234667778015137, 5.653414726257324],
      "min": [-6.632054805755615, 3.21116042137146, -0.8864073753356934],
      "type": "VEC3"
    },
    {
      "bufferView": 45,
      "componentType": 5126,
      "count": 124,
      "type": "VEC3"
    },
    {
      "bufferView": 46,
      "componentType": 5126,
      "count": 124,
      "type": "VEC2"
    },
    {
      "bufferView": 47,
      "componentType": 5123,
      "count": 324,
      "type": "SCALAR"
    },
    {
      "bufferView": 48,
      "componentType": 5126,
      "count": 452,
      "max": [1, 1.9949206113815308, 4.712526798248291],
      "min": [-1, -1, -1],
      "type": "VEC3"
    },
    {
      "bufferView": 49,
      "componentType": 5126,
      "count": 452,
      "type": "VEC3"
    },
    {
      "bufferView": 50,
      "componentType": 5126,
      "count": 452,
      "type": "VEC2"
    },
    {
      "bufferView": 51,
      "componentType": 5123,
      "count": 1500,
      "type": "SCALAR"
    }
  ],
  "bufferViews": [
    {
      "buffer": 0,
      "byteLength": 3900,
      "byteOffset": 0,
      "target": 34962
    },
    {
      "buffer": 0,
      "byteLength": 3900,
      "byteOffset": 3900,
      "target": 34962
    },
    {
      "buffer": 0,
      "byteLength": 2600,
      "byteOffset": 7800,
      "target": 34962
    },
    {
      "buffer": 0,
      "byteLength": 3456,
      "byteOffset": 10400,
      "target": 34963
    },
    {
      "buffer": 0,
      "byteLength": 5928,
      "byteOffset": 13856,
      "target": 34962
    },
    {
      "buffer": 0,
      "byteLength": 5928,
      "byteOffset": 19784,
      "target": 34962
    },
    {
      "buffer": 0,
      "byteLength": 3952,
      "byteOffset": 25712,
      "target": 34962
    },
    {
      "buffer": 0,
      "byteLength": 2244,
      "byteOffset": 29664,
      "target": 34963
    },
    {
      "buffer": 0,
      "byteLength": 38508,
      "byteOffset": 31908,
      "target": 34962
    },
    {
      "buffer": 0,
      "byteLength": 38508,
      "byteOffset": 70416,
      "target": 34962
    },
    {
      "buffer": 0,
      "byteLength": 25672,
      "byteOffset": 108924,
      "target": 34962
    },
    {
      "buffer": 0,
      "byteLength": 13536,
      "byteOffset": 134596,
      "target": 34963
    },
    {
      "buffer": 0,
      "byteLength": 10524,
      "byteOffset": 148132,
      "target": 34962
    },
    {
      "buffer": 0,
      "byteLength": 10524,
      "byteOffset": 158656,
      "target": 34962
    },
    {
      "buffer": 0,
      "byteLength": 7016,
      "byteOffset": 169180,
      "target": 34962
    },
    {
      "buffer": 0,
      "byteLength": 3912,
      "byteOffset": 176196,
      "target": 34963
    },
    {
      "buffer": 0,
      "byteLength": 11952,
      "byteOffset": 180108,
      "target": 34962
    },
    {
      "buffer": 0,
      "byteLength": 11952,
      "byteOffset": 192060,
      "target": 34962
    },
    {
      "buffer": 0,
      "byteLength": 7968,
      "byteOffset": 204012,
      "target": 34962
    },
    {
      "buffer": 0,
      "byteLength": 4656,
      "byteOffset": 211980,
      "target": 34963
    },
    {
      "buffer": 0,
      "byteLength": 1152,
      "byteOffset": 216636,
      "target": 34962
    },
    {
      "buffer": 0,
      "byteLength": 1152,
      "byteOffset": 217788,
      "target": 34962
    },
    {
      "buffer": 0,
      "byteLength": 768,
      "byteOffset": 218940,
      "target": 34962
    },
    {
      "buffer": 0,
      "byteLength": 444,
      "byteOffset": 219708,
      "target": 34963
    },
    {
      "buffer": 0,
      "byteLength": 3180,
      "byteOffset": 220152,
      "target": 34962
    },
    {
      "buffer": 0,
      "byteLength": 3180,
      "byteOffset": 223332,
      "target": 34962
    },
    {
      "buffer": 0,
      "byteLength": 2120,
      "byteOffset": 226512,
      "target": 34962
    },
    {
      "buffer": 0,
      "byteLength": 1128,
      "byteOffset": 228632,
      "target": 34963
    },
    {
      "buffer": 0,
      "byteLength": 20712,
      "byteOffset": 229760,
      "target": 34962
    },
    {
      "buffer": 0,
      "byteLength": 20712,
      "byteOffset": 250472,
      "target": 34962
    },
    {
      "buffer": 0,
      "byteLength": 13808,
      "byteOffset": 271184,
      "target": 34962
    },
    {
      "buffer": 0,
      "byteLength": 8760,
      "byteOffset": 284992,
      "target": 34963
    },
    {
      "buffer": 0,
      "byteLength": 16452,
      "byteOffset": 293752,
      "target": 34962
    },
    {
      "buffer": 0,
      "byteLength": 16452,
      "byteOffset": 310204,
      "target": 34962
    },
    {
      "buffer": 0,
      "byteLength": 10968,
      "byteOffset": 326656,
      "target": 34962
    },
    {
      "buffer": 0,
      "byteLength": 6216,
      "byteOffset": 337624,
      "target": 34963
    },
    {
      "buffer": 0,
      "byteLength": 10764,
      "byteOffset": 343840,
      "target": 34962
    },
    {
      "buffer": 0,
      "byteLength": 10764,
      "byteOffset": 354604,
      "target": 34962
    },
    {
      "buffer": 0,
      "byteLength": 7176,
      "byteOffset": 365368,
      "target": 34962
    },
    {
      "buffer": 0,
      "byteLength": 3384,
      "byteOffset": 372544,
      "target": 34963
    },
    {
      "buffer": 0,
      "byteLength": 18060,
      "byteOffset": 375928,
      "target": 34962
    },
    {
      "buffer": 0,
      "byteLength": 18060,
      "byteOffset": 393988,
      "target": 34962
    },
    {
      "buffer": 0,
      "byteLength": 12040,
      "byteOffset": 412048,
      "target": 34962
    },
    {
      "buffer": 0,
      "byteLength": 5640,
      "byteOffset": 424088,
      "target": 34963
    },
    {
      "buffer": 0,
      "byteLength": 1488,
      "byteOffset": 429728,
      "target": 34962
    },
    {
      "buffer": 0,
      "byteLength": 1488,
      "byteOffset": 431216,
      "target": 34962
    },
    {
      "buffer": 0,
      "byteLength": 992,
      "byteOffset": 432704,
      "target": 34962
    },
    {
      "buffer": 0,
      "byteLength": 648,
      "byteOffset": 433696,
      "target": 34963
    },
    {
      "buffer": 0,
      "byteLength": 5424,
      "byteOffset": 434344,
      "target": 34962
    },
    {
      "buffer": 0,
      "byteLength": 5424,
      "byteOffset": 439768,
      "target": 34962
    },
    {
      "buffer": 0,
      "byteLength": 3616,
      "byteOffset": 445192,
      "target": 34962
    },
    {
      "buffer": 0,
      "byteLength": 3000,
      "byteOffset": 448808,
      "target": 34963
    }
  ],
  "buffers": [
    {
      "byteLength": 451808,
      "uri": "Low+Poly+Kitchen.bin"
    }
  ]
}
